<svg preserveAspectRatio="none" width="100%" height="100%" overflow="visible" style="display: block; --fill-0: #ffffff;" viewBox="0 0 60 60" fill="none" xmlns="http://www.w3.org/2000/svg">
<g id="Logo">
<path d="M45.0291 25.676V9.04212C45.0291 8.69569 44.844 8.37662 44.5417 8.20342L30.4851 0.129909C30.1845 -0.043303 29.8124 -0.043303 29.5118 0.129909L15.4536 8.20342C15.153 8.37662 14.966 8.69569 14.966 9.04212V25.676L29.51 17.3235C29.8106 17.1503 30.1827 17.1503 30.4833 17.3235L45.0274 25.676H45.0291Z" fill="var(--fill-0, #1E1E1E)"/>
<path d="M29.9992 51.554L44.4809 59.8701C44.7815 60.0433 45.1536 60.0433 45.4542 59.8701L59.5126 51.7966C59.8132 51.6234 60 51.3044 60 50.9579V34.8108C60 34.4643 59.8149 34.1453 59.5126 33.9721L45.0326 25.6744V42.3611C45.0326 42.7075 44.8476 43.0266 44.545 43.1998L30.001 51.5522L29.9992 51.554Z" fill="var(--fill-0, #1E1E1E)"/>
<path d="M29.999 51.5536L15.5173 59.8695C15.2167 60.0427 14.8446 60.0427 14.544 59.8695L0.48755 51.7978C0.185122 51.6247 0 51.3055 0 50.9591V34.8121C0 34.4657 0.185122 34.1467 0.48755 33.9734L14.9674 25.6756V42.3624C14.9674 42.7089 15.1525 43.0279 15.455 43.2011L29.999 51.5536Z" fill="var(--fill-0, #1E1E1E)"/>
<path d="M25.7449 29.8186H23.2888V28.7557H26.1719V27.2642H21.6301V33.9503H23.2888V31.3119H25.7449V29.8186Z" fill="var(--fill-0, #1E1E1E)"/>
<path d="M28.304 27.2642L26.0898 33.9503H27.7816L28.2453 32.4187H30.2212L30.685 33.9503H32.4133L30.2267 27.2642H28.304ZM29.8051 30.982H28.6522L29.2241 29.0219L29.8034 30.982H29.8051Z" fill="var(--fill-0, #1E1E1E)"/>
<path d="M38.21 31.2335C38.1074 31.0294 37.9773 30.8579 37.8215 30.7284C37.6675 30.599 37.4971 30.5043 37.3137 30.444C37.4697 30.3857 37.6071 30.2945 37.7226 30.1759C37.8416 30.0538 37.9388 29.8952 38.0085 29.7093C38.0781 29.525 38.1129 29.2989 38.1129 29.0382C38.1129 28.5096 37.9499 28.0757 37.6272 27.7529C37.3048 27.4283 36.8519 27.2642 36.2818 27.2642H33.0139V33.9503H36.5697C36.8281 33.9503 37.07 33.8974 37.2899 33.7951C37.5082 33.6931 37.6988 33.551 37.8582 33.374C37.0158 33.1971 38.1405 32.9876 38.2304 32.7486C38.3183 32.5116 38.3623 32.2564 38.3623 31.9902C38.3623 31.6949 38.3091 31.4414 38.2046 31.2335H38.21ZM34.6763 31.2919H36.1755C36.3295 31.2919 36.445 31.3302 36.5312 31.4105C36.6137 31.4888 36.6539 31.6 36.6539 31.7495V32.0631C36.6539 32.2126 36.6137 32.3238 36.5312 32.4022C36.4468 32.4825 36.3295 32.5208 36.1755 32.5208H34.6763V31.2919ZM36.4212 29.4358C36.4212 29.587 36.3809 29.7002 36.3002 29.7822C36.2177 29.8643 36.1042 29.9026 35.9519 29.9026H34.6763V28.692H35.9519C36.1042 28.692 36.2177 28.732 36.3002 28.8121C36.3827 28.8943 36.4212 29.0073 36.4212 29.1585V29.4358Z" fill="var(--fill-0, #1E1E1E)"/>
<path d="M23.426 41.4638C22.647 41.4638 22.0366 41.2029 21.593 40.6798C21.1495 40.1564 20.9277 39.398 20.9277 38.4024C20.9277 37.9047 20.9846 37.4671 21.0981 37.088C21.2119 36.7087 21.3768 36.3896 21.593 36.1289C21.8093 35.8682 22.0714 35.673 22.3812 35.5398C22.6909 35.4068 23.0392 35.3411 23.426 35.3411C23.9427 35.3411 24.3772 35.4523 24.7272 35.6767C25.0775 35.9009 25.3505 36.2327 25.5502 36.6721L24.7401 37.1134C24.6375 36.8307 24.4798 36.6066 24.2672 36.4388C24.0545 36.273 23.7743 36.189 23.4278 36.189C22.9677 36.189 22.6067 36.3459 22.3446 36.6575C22.0823 36.9694 21.9524 37.4015 21.9524 37.9521V38.8546C21.9524 39.4052 22.0823 39.8374 22.3446 40.1492C22.6067 40.4611 22.9677 40.6178 23.4278 40.6178C23.7852 40.6178 24.0766 40.5266 24.3022 40.3425C24.5275 40.1584 24.6924 39.9231 24.8005 39.6332L25.5758 40.1C25.3761 40.5285 25.0976 40.8639 24.7401 41.1046C24.3827 41.3453 23.9447 41.4656 23.426 41.4656V41.4638Z" fill="var(--fill-0, #1E1E1E)"/>
<path d="M26.1356 41.3616V40.5812H26.9457V36.2199H26.1356V35.4395H28.7291V36.2199H27.9098V40.5812H28.7291V41.3616H26.1356Z" fill="var(--fill-0, #1E1E1E)"/>
<path d="M31.8885 36.2893V41.3635H30.9244V36.2893H29.15V35.4415H33.6627V36.2893H31.8885Z" fill="var(--fill-0, #1E1E1E)"/>
<path d="M36.042 41.3616V39.0278L33.9946 35.4395H35.0943L36.5443 38.0779H36.5699L38.0105 35.4395H39.0682L37.0044 39.0113V41.3616H36.0403H36.042Z" fill="var(--fill-0, #1E1E1E)"/>
</g>
</svg>
